<svg width="40" height="40" viewBox="0 0 40 40" fill="none" xmlns="http://www.w3.org/2000/svg">
<path d="M31.6664 17.5H17.0114L21.0764 13.435C21.5453 12.9663 21.8089 12.3304 21.8091 11.6673C21.8092 11.0042 21.546 10.3682 21.0772 9.89922C20.6084 9.43022 19.9725 9.16666 19.3094 9.1665C18.6463 9.16635 18.0103 9.42961 17.5414 9.89838L11.5647 15.875C10.4726 16.9701 9.85938 18.4535 9.85938 20C9.85937 21.5466 10.4726 23.03 11.5647 24.125L17.5414 30.1017C18.0103 30.5705 18.6463 30.8337 19.3094 30.8336C19.9725 30.8334 20.6084 30.5699 21.0772 30.1009C21.546 29.6319 21.8092 28.9959 21.8091 28.3328C21.8089 27.6697 21.5453 27.0338 21.0764 26.565L17.0114 22.5H31.6664C32.3294 22.5 32.9653 22.2367 33.4341 21.7678C33.903 21.299 34.1664 20.6631 34.1664 20C34.1664 19.337 33.903 18.7011 33.4341 18.2323C32.9653 17.7634 32.3294 17.5 31.6664 17.5Z" fill="#374957"/>
</svg>
