<svg width="61" height="60" viewBox="0 0 61 60" fill="none" xmlns="http://www.w3.org/2000/svg">
<path d="M52.6182 18.5404V11.6245C52.6182 10.6632 52.2363 9.7413 51.5566 9.06158C50.8769 8.38186 49.955 8 48.9937 8H9.12448C8.1632 8 7.2413 8.38186 6.56158 9.06158C5.88186 9.7413 5.5 10.6632 5.5 11.6245V40.6203C5.5 41.5815 5.88186 42.5034 6.56158 43.1832C7.2413 43.8629 8.1632 44.2447 9.12448 44.2447H36.308V49.6815C36.3052 50.0009 36.3868 50.3155 36.5447 50.5933C36.7026 50.8711 36.9311 51.1021 37.2071 51.2631C37.483 51.4241 37.7967 51.5093 38.1162 51.51C38.4357 51.5107 38.7497 51.4269 39.0264 51.2672L44.4631 48.1546L49.8998 51.2672C50.1765 51.4269 50.4905 51.5107 50.81 51.51C51.1295 51.5093 51.4432 51.4241 51.7191 51.2631C51.9951 51.1021 52.2236 50.8711 52.3815 50.5933C52.5394 50.3155 52.6211 50.0009 52.6182 49.6815V35.5166C53.7638 34.4195 54.6754 33.1019 55.2982 31.6432C55.9211 30.1844 56.2421 28.6146 56.2421 27.0285C56.2421 25.4423 55.9211 23.8726 55.2982 22.4138C54.6754 20.9551 53.7638 19.6375 52.6182 18.5404ZM29.0591 31.5591H16.3734C15.8928 31.5591 15.4318 31.3682 15.092 31.0283C14.7521 30.6884 14.5612 30.2275 14.5612 29.7468C14.5612 29.2662 14.7521 28.8053 15.092 28.4654C15.4318 28.1255 15.8928 27.9346 16.3734 27.9346H29.0591C29.5397 27.9346 30.0007 28.1255 30.3405 28.4654C30.6804 28.8053 30.8713 29.2662 30.8713 29.7468C30.8713 30.2275 30.6804 30.6884 30.3405 31.0283C30.0007 31.3682 29.5397 31.5591 29.0591 31.5591ZM29.0591 24.3101H16.3734C15.8928 24.3101 15.4318 24.1192 15.092 23.7793C14.7521 23.4395 14.5612 22.9785 14.5612 22.4979C14.5612 22.0173 14.7521 21.5563 15.092 21.2165C15.4318 20.8766 15.8928 20.6857 16.3734 20.6857H29.0591C29.5397 20.6857 30.0007 20.8766 30.3405 21.2165C30.6804 21.5563 30.8713 22.0173 30.8713 22.4979C30.8713 22.9785 30.6804 23.4395 30.3405 23.7793C30.0007 24.1192 29.5397 24.3101 29.0591 24.3101ZM48.9937 46.5576L45.3692 44.4826C45.0954 44.3261 44.7854 44.2437 44.4699 44.2437C44.1544 44.2437 43.8445 44.3261 43.5706 44.4826L39.9461 46.5576V37.9019C41.3813 38.5015 42.9213 38.8103 44.4767 38.8103C46.0321 38.8103 47.5721 38.5015 49.0073 37.9019L48.9937 46.5576ZM44.4631 35.1836C42.8502 35.1836 41.2735 34.7053 39.9324 33.8092C38.5913 32.9131 37.546 31.6394 36.9288 30.1493C36.3116 28.6592 36.1501 27.0194 36.4647 25.4375C36.7794 23.8556 37.5561 22.4025 38.6966 21.262C39.8371 20.1215 41.2902 19.3448 42.8721 19.0301C44.4541 18.7155 46.0938 18.877 47.5839 19.4942C49.0741 20.1114 50.3477 21.1567 51.2438 22.4978C52.1399 23.8389 52.6182 25.4156 52.6182 27.0285C52.6182 28.0994 52.4072 29.1599 51.9974 30.1493C51.5876 31.1387 50.9869 32.0377 50.2296 32.795C49.4723 33.5523 48.5733 34.153 47.5839 34.5628C46.5945 34.9726 45.534 35.1836 44.4631 35.1836Z" fill="#653FFF"/>
</svg>
