<svg width="20" height="20" viewBox="0 0 20 20" fill="none" xmlns="http://www.w3.org/2000/svg">
<g clip-path="url(#clip0_121_21843)">
<path d="M15 10.833C14.267 10.8305 13.5538 11.0704 12.9713 11.5154C12.3889 11.9604 11.97 12.5855 11.7798 13.2934C11.5896 14.0013 11.6389 14.7522 11.9198 15.4292C12.2008 16.1061 12.6978 16.6712 13.3333 17.0364V19.3972C13.3333 19.5161 13.3685 19.6323 13.4345 19.7312C13.5005 19.83 13.5944 19.9071 13.7042 19.9526C13.814 19.9981 13.9349 20.01 14.0514 19.9868C14.168 19.9636 14.2751 19.9063 14.3591 19.8222L15 19.1822L15.6408 19.8222C15.7248 19.9063 15.8319 19.9636 15.9485 19.9868C16.0651 20.01 16.186 19.9981 16.2958 19.9526C16.4056 19.9071 16.4995 19.83 16.5655 19.7312C16.6315 19.6323 16.6667 19.5161 16.6666 19.3972V17.0364C17.3022 16.6712 17.7991 16.1061 18.0801 15.4292C18.3611 14.7522 18.4103 14.0013 18.2201 13.2934C18.03 12.5855 17.611 11.9604 17.0286 11.5154C16.4462 11.0704 15.7329 10.8305 15 10.833Z" fill="#374957"/>
<path d="M10 14.1667C9.99898 13.2887 10.2294 12.4259 10.6682 11.6654C11.1069 10.9048 11.7384 10.2734 12.4989 9.83469C13.2595 9.39602 14.1223 9.1656 15.0003 9.16668C15.8783 9.16776 16.7405 9.40029 17.5 9.84083V4.16667C17.4987 3.062 17.0593 2.00296 16.2782 1.22185C15.497 0.440735 14.438 0.00132321 13.3333 0L6.66667 0C5.562 0.00132321 4.50296 0.440735 3.72185 1.22185C2.94073 2.00296 2.50132 3.062 2.5 4.16667V14.1667C2.50132 15.2713 2.94073 16.3304 3.72185 17.1115C4.50296 17.8926 5.562 18.332 6.66667 18.3333H11.6667V17.8833C11.1426 17.4163 10.7231 16.8438 10.4359 16.2032C10.1487 15.5627 10.0001 14.8687 10 14.1667ZM6.66667 3.33333H13.3333C13.5543 3.33333 13.7663 3.42113 13.9226 3.57741C14.0789 3.73369 14.1667 3.94565 14.1667 4.16667C14.1667 4.38768 14.0789 4.59964 13.9226 4.75592C13.7663 4.9122 13.5543 5 13.3333 5H6.66667C6.44565 5 6.23369 4.9122 6.07741 4.75592C5.92113 4.59964 5.83333 4.38768 5.83333 4.16667C5.83333 3.94565 5.92113 3.73369 6.07741 3.57741C6.23369 3.42113 6.44565 3.33333 6.66667 3.33333ZM6.66667 6.66667H13.3333C13.5543 6.66667 13.7663 6.75446 13.9226 6.91074C14.0789 7.06702 14.1667 7.27899 14.1667 7.5C14.1667 7.72101 14.0789 7.93297 13.9226 8.08925C13.7663 8.24553 13.5543 8.33333 13.3333 8.33333H6.66667C6.44565 8.33333 6.23369 8.24553 6.07741 8.08925C5.92113 7.93297 5.83333 7.72101 5.83333 7.5C5.83333 7.27899 5.92113 7.06702 6.07741 6.91074C6.23369 6.75446 6.44565 6.66667 6.66667 6.66667ZM9.16667 11.6667H6.66667C6.44565 11.6667 6.23369 11.5789 6.07741 11.4226C5.92113 11.2663 5.83333 11.0543 5.83333 10.8333C5.83333 10.6123 5.92113 10.4004 6.07741 10.2441C6.23369 10.0878 6.44565 10 6.66667 10H9.16667C9.38768 10 9.59964 10.0878 9.75592 10.2441C9.9122 10.4004 10 10.6123 10 10.8333C10 11.0543 9.9122 11.2663 9.75592 11.4226C9.59964 11.5789 9.38768 11.6667 9.16667 11.6667Z" fill="#374957"/>
</g>
<defs>
<clipPath id="clip0_121_21843">
<rect width="20" height="20" fill="white"/>
</clipPath>
</defs>
</svg>
