<svg width="18" height="18" viewBox="0 0 18 18" fill="none" xmlns="http://www.w3.org/2000/svg">
<g clip-path="url(#clip0_121_18222)">
<path d="M7.4094 13.5915C8.28781 14.4705 9.71242 14.4709 10.5914 13.5925C10.5917 13.5922 10.5921 13.5919 10.5924 13.5915L13.0006 11.1833C13.2785 10.876 13.2546 10.4017 12.9474 10.1239C12.6613 9.8653 12.2257 9.86576 11.9402 10.125L9.74567 12.3203L9.75091 0.750023C9.75088 0.335777 9.4151 0 9.00089 0C8.58668 0 8.2509 0.335777 8.2509 0.749988L8.24415 12.306L6.06165 10.125C5.76859 9.83215 5.29363 9.83232 5.00077 10.1254C4.70792 10.4184 4.7081 10.8934 5.00116 11.1863L7.4094 13.5915Z" fill="#5D5F60"/>
<path d="M17.25 12C16.8358 12 16.5 12.3358 16.5 12.75V15.75C16.5 16.1642 16.1642 16.5 15.75 16.5H2.25C1.83579 16.5 1.50001 16.1642 1.50001 15.75V12.75C1.50001 12.3358 1.16423 12 0.750023 12C0.335777 12 0 12.3358 0 12.75V15.75C0 16.9926 1.00737 18 2.25 18H15.75C16.9926 18 18 16.9926 18 15.75V12.75C18 12.3358 17.6642 12 17.25 12Z" fill="#5D5F60"/>
</g>
<defs>
<clipPath id="clip0_121_18222">
<rect width="18" height="18" fill="white"/>
</clipPath>
</defs>
</svg>
