<svg width="61" height="60" viewBox="0 0 61 60" fill="none" xmlns="http://www.w3.org/2000/svg">
<path d="M38.525 5.00004H22.375C17.9015 5.00666 13.6131 6.78667 10.4499 9.9499C7.28663 13.1131 5.50661 17.4015 5.5 21.875V38.1249C5.50661 42.5984 7.28663 46.8868 10.4499 50.05C13.6131 53.2133 17.9015 54.9933 22.375 54.9999H38.625C43.0985 54.9933 47.3869 53.2133 50.5501 50.05C53.7134 46.8868 55.4934 42.5984 55.5 38.1249V21.875C55.4967 19.6514 55.0547 17.4504 54.1992 15.398C53.3438 13.3456 52.0917 11.4821 50.5148 9.91451C48.9378 8.34687 47.067 7.10583 45.0096 6.26251C42.9522 5.41919 40.7485 4.99017 38.525 5.00004ZM44.45 23.55L38.325 32.825C37.6834 33.7716 36.7003 34.4331 35.5818 34.6708C34.4632 34.9085 33.296 34.7039 32.325 34.0999L26.35 30.325C26.2835 30.2937 26.211 30.2776 26.1375 30.2776C26.064 30.2776 25.9915 30.2937 25.925 30.325C25.7671 30.344 25.6232 30.4249 25.525 30.55L19.4 38.6499C19.1051 39.013 18.6852 39.2527 18.2227 39.3221C17.7602 39.3915 17.2884 39.2855 16.9 39.0249C16.537 38.7301 16.2972 38.3102 16.2278 37.8476C16.1585 37.3851 16.2644 36.9133 16.525 36.5249L22.65 28.375C23.3093 27.4981 24.274 26.9009 25.3529 26.7018C26.4318 26.5026 27.5461 26.7162 28.475 27.3L34.45 31.075C34.5236 31.1123 34.605 31.1318 34.6875 31.1318C34.77 31.1318 34.8514 31.1123 34.925 31.075C35.0011 31.0607 35.0736 31.0312 35.138 30.9882C35.2025 30.9453 35.2576 30.8897 35.3 30.825L41.45 21.55C41.7252 21.1356 42.1537 20.8475 42.6413 20.749C43.1289 20.6506 43.6356 20.7498 44.05 21.025C44.4644 21.3002 44.7525 21.7287 44.851 22.2163C44.9494 22.7038 44.8502 23.2106 44.575 23.625L44.45 23.55Z" fill="#653FFF"/>
</svg>
