<svg width="60" height="60" viewBox="0 0 60 60" fill="none" xmlns="http://www.w3.org/2000/svg">
<path fill-rule="evenodd" clip-rule="evenodd" d="M23.98 7.99998C23.5854 8.35412 23.1723 8.68708 22.7425 8.99748C21.9975 9.49748 21.16 9.84248 20.28 10.0175C19.8975 10.0925 19.4975 10.125 18.7 10.1875C16.6975 10.3475 15.695 10.4275 14.86 10.7225C13.905 11.0591 13.0376 11.6055 12.3215 12.3215C11.6055 13.0375 11.0591 13.905 10.7225 14.86C10.4275 15.695 10.3475 16.6975 10.1875 18.7C10.1588 19.2293 10.102 19.7567 10.0175 20.28C9.84248 21.16 9.49748 21.9975 8.99748 22.7425C8.77998 23.0675 8.51998 23.3725 7.99998 23.98C6.69748 25.51 6.04499 26.275 5.66249 27.075C4.77999 28.925 4.77999 31.075 5.66249 32.925C6.04499 33.725 6.69748 34.49 7.99998 36.02C8.51998 36.6275 8.77998 36.9325 8.99748 37.2575C9.49748 38.0025 9.84248 38.84 10.0175 39.72C10.0925 40.1025 10.125 40.5025 10.1875 41.3C10.3475 43.3025 10.4275 44.305 10.7225 45.14C11.0591 46.095 11.6055 46.9624 12.3215 47.6784C13.0376 48.3944 13.905 48.9409 14.86 49.2775C15.695 49.5725 16.6975 49.6525 18.7 49.8125C19.4975 49.875 19.8975 49.9075 20.28 49.9825C21.16 50.1575 21.9975 50.505 22.7425 51.0025C23.0675 51.22 23.3725 51.48 23.98 52C25.51 53.3025 26.275 53.955 27.075 54.3375C28.925 55.22 31.075 55.22 32.925 54.3375C33.725 53.955 34.49 53.3025 36.02 52C36.6275 51.48 36.9325 51.22 37.2575 51.0025C38.0025 50.5025 38.84 50.1575 39.72 49.9825C40.1025 49.9075 40.5025 49.875 41.3 49.8125C43.3025 49.6525 44.305 49.5725 45.14 49.2775C46.095 48.9409 46.9624 48.3944 47.6784 47.6784C48.3945 46.9624 48.9409 46.095 49.2775 45.14C49.5725 44.305 49.6525 43.3025 49.8125 41.3C49.875 40.5025 49.9075 40.1025 49.9825 39.72C50.1575 38.84 50.505 38.0025 51.0025 37.2575C51.22 36.9325 51.48 36.6275 52 36.02C53.3025 34.49 53.955 33.725 54.3375 32.925C55.22 31.075 55.22 28.925 54.3375 27.075C53.955 26.275 53.3025 25.51 52 23.98C51.6458 23.5854 51.3129 23.1723 51.0025 22.7425C50.5022 21.9976 50.1554 21.1604 49.9825 20.28C49.8979 19.7567 49.8412 19.2293 49.8125 18.7C49.6525 16.6975 49.5725 15.695 49.2775 14.86C48.9409 13.905 48.3945 13.0375 47.6784 12.3215C46.9624 11.6055 46.095 11.0591 45.14 10.7225C44.305 10.4275 43.3025 10.3475 41.3 10.1875C40.7707 10.1588 40.2433 10.102 39.72 10.0175C38.8395 9.84453 38.0024 9.49777 37.2575 8.99748C36.8276 8.68708 36.4146 8.35412 36.02 7.99998C34.49 6.69748 33.725 6.04498 32.925 5.66248C32.0118 5.22541 31.0123 4.99854 30 4.99854C28.9876 4.99854 27.9881 5.22541 27.075 5.66248C26.275 6.04498 25.51 6.69748 23.98 7.99998ZM40.9325 24.6575C41.2858 24.2708 41.4764 23.7627 41.4646 23.239C41.4528 22.7153 41.2395 22.2163 40.8691 21.8459C40.4987 21.4755 39.9997 21.2622 39.476 21.2504C38.9523 21.2385 38.4442 21.4291 38.0575 21.7825L25.9325 33.9075L21.9425 29.92C21.5558 29.5666 21.0477 29.376 20.524 29.3878C20.0003 29.3997 19.5013 29.613 19.1309 29.9834C18.7605 30.3538 18.5472 30.8528 18.5354 31.3765C18.5235 31.9002 18.7141 32.4083 19.0675 32.795L24.4925 38.22C24.874 38.6007 25.391 38.8146 25.93 38.8146C26.469 38.8146 26.986 38.6007 27.3675 38.22L40.9325 24.6575Z" fill="#653FFF"/>
</svg>
