<svg width="140" height="29" viewBox="0 0 140 29" fill="none" xmlns="http://www.w3.org/2000/svg">
<path d="M13.3104 3.15385C13.6084 2.23677 14.9058 2.23676 15.2038 3.15384L17.1624 9.18176C17.2957 9.59189 17.6779 9.86957 18.1091 9.86957H24.4472C25.4115 9.86957 25.8124 11.1035 25.0323 11.6703L19.9047 15.3957C19.5558 15.6492 19.4098 16.0985 19.543 16.5086L21.5016 22.5366C21.7996 23.4536 20.75 24.2162 19.9699 23.6495L14.8422 19.924C14.4933 19.6705 14.0209 19.6705 13.672 19.924L8.54438 23.6495C7.76427 24.2162 6.71463 23.4536 7.01261 22.5366L8.9712 16.5086C9.10446 16.0985 8.95847 15.6492 8.60959 15.3957L3.48194 11.6703C2.70182 11.1035 3.10275 9.86957 4.06702 9.86957H10.4052C10.8364 9.86957 11.2186 9.59189 11.3518 9.18176L13.3104 3.15385Z" fill="white"/>
<path d="M41.1819 3.15385C41.4799 2.23677 42.7773 2.23676 43.0753 3.15384L45.0339 9.18176C45.1671 9.59189 45.5493 9.86957 45.9805 9.86957H52.3187C53.283 9.86957 53.6839 11.1035 52.9038 11.6703L47.7761 15.3957C47.4272 15.6492 47.2812 16.0985 47.4145 16.5086L49.3731 22.5366C49.6711 23.4536 48.6214 24.2162 47.8413 23.6495L42.7137 19.924C42.3648 19.6705 41.8924 19.6705 41.5435 19.924L36.4158 23.6495C35.6357 24.2162 34.5861 23.4536 34.8841 22.5366L36.8427 16.5086C36.9759 16.0985 36.8299 15.6492 36.4811 15.3957L31.3534 11.6703C30.5733 11.1035 30.9742 9.86957 31.9385 9.86957H38.2766C38.7078 9.86957 39.09 9.59189 39.2233 9.18176L41.1819 3.15385Z" fill="white"/>
<path d="M69.0532 3.15385C69.3512 2.23677 70.6486 2.23676 70.9466 3.15384L72.9052 9.18176C73.0385 9.59189 73.4207 9.86957 73.8519 9.86957H80.19C81.1543 9.86957 81.5552 11.1035 80.7751 11.6703L75.6474 15.3957C75.2986 15.6492 75.1526 16.0985 75.2858 16.5086L77.2444 22.5366C77.5424 23.4536 76.4928 24.2162 75.7127 23.6495L70.585 19.924C70.2361 19.6705 69.7637 19.6705 69.4148 19.924L64.2872 23.6495C63.5071 24.2162 62.4574 23.4536 62.7554 22.5366L64.714 16.5086C64.8473 16.0985 64.7013 15.6492 64.3524 15.3957L59.2247 11.6703C58.4446 11.1035 58.8455 9.86957 59.8098 9.86957H66.148C66.5792 9.86957 66.9614 9.59189 67.0946 9.18176L69.0532 3.15385Z" fill="white"/>
<path d="M96.9247 3.15385C97.2227 2.23677 98.5201 2.23676 98.8181 3.15384L100.777 9.18176C100.91 9.59189 101.292 9.86957 101.723 9.86957H108.061C109.026 9.86957 109.427 11.1035 108.647 11.6703L103.519 15.3957C103.17 15.6492 103.024 16.0985 103.157 16.5086L105.116 22.5366C105.414 23.4536 104.364 24.2162 103.584 23.6495L98.4565 19.924C98.1076 19.6705 97.6352 19.6705 97.2863 19.924L92.1586 23.6495C91.3785 24.2162 90.3289 23.4536 90.6269 22.5366L92.5855 16.5086C92.7187 16.0985 92.5727 15.6492 92.2239 15.3957L87.0962 11.6703C86.3161 11.1035 86.717 9.86957 87.6813 9.86957H94.0194C94.4506 9.86957 94.8328 9.59189 94.9661 9.18176L96.9247 3.15385Z" fill="white"/>
<path d="M124.796 3.15385C125.094 2.23677 126.392 2.23676 126.69 3.15384L128.648 9.18176C128.781 9.59189 129.164 9.86957 129.595 9.86957H135.933C136.897 9.86957 137.298 11.1035 136.518 11.6703L131.39 15.3957C131.041 15.6492 130.896 16.0985 131.029 16.5086L132.987 22.5366C133.285 23.4536 132.236 24.2162 131.456 23.6495L126.328 19.924C125.979 19.6705 125.507 19.6705 125.158 19.924L120.03 23.6495C119.25 24.2162 118.2 23.4536 118.498 22.5366L120.457 16.5086C120.59 16.0985 120.444 15.6492 120.095 15.3957L114.968 11.6703C114.188 11.1035 114.588 9.86957 115.553 9.86957H121.891C122.322 9.86957 122.704 9.59189 122.838 9.18176L124.796 3.15385Z" fill="white"/>
</svg>
