<svg width="25" height="24" viewBox="0 0 25 24" fill="none" xmlns="http://www.w3.org/2000/svg">
<path d="M12.4999 7.09109C13.4036 7.09109 14.1363 6.35846 14.1363 5.45472C14.1363 4.55098 13.4036 3.81836 12.4999 3.81836C11.5962 3.81836 10.8635 4.55098 10.8635 5.45472C10.8635 6.35846 11.5962 7.09109 12.4999 7.09109Z" fill="#0A0A0A"/>
<path d="M12.4999 13.6365C13.4036 13.6365 14.1363 12.9039 14.1363 12.0001C14.1363 11.0964 13.4036 10.3638 12.4999 10.3638C11.5962 10.3638 10.8635 11.0964 10.8635 12.0001C10.8635 12.9039 11.5962 13.6365 12.4999 13.6365Z" fill="#0A0A0A"/>
<path d="M12.4999 20.1819C13.4036 20.1819 14.1363 19.4493 14.1363 18.5455C14.1363 17.6418 13.4036 16.9092 12.4999 16.9092C11.5962 16.9092 10.8635 17.6418 10.8635 18.5455C10.8635 19.4493 11.5962 20.1819 12.4999 20.1819Z" fill="#0A0A0A"/>
</svg>
