<svg width="17" height="16" viewBox="0 0 17 16" fill="none" xmlns="http://www.w3.org/2000/svg">
<path d="M8.49911 4.72723C9.1016 4.72723 9.59002 4.23881 9.59002 3.63632C9.59002 3.03383 9.1016 2.54541 8.49911 2.54541C7.89662 2.54541 7.4082 3.03383 7.4082 3.63632C7.4082 4.23881 7.89662 4.72723 8.49911 4.72723Z" fill="#6240ED"/>
<path d="M8.49911 9.091C9.1016 9.091 9.59002 8.60258 9.59002 8.00009C9.59002 7.3976 9.1016 6.90918 8.49911 6.90918C7.89662 6.90918 7.4082 7.3976 7.4082 8.00009C7.4082 8.60258 7.89662 9.091 8.49911 9.091Z" fill="#6240ED"/>
<path d="M8.49911 13.4543C9.1016 13.4543 9.59002 12.9659 9.59002 12.3634C9.59002 11.7609 9.1016 11.2725 8.49911 11.2725C7.89662 11.2725 7.4082 11.7609 7.4082 12.3634C7.4082 12.9659 7.89662 13.4543 8.49911 13.4543Z" fill="#6240ED"/>
</svg>
