<svg width="24" height="24" viewBox="0 0 24 24" fill="none" xmlns="http://www.w3.org/2000/svg">
<path d="M11.234 7.28955V3.28053C11.234 2.85425 11.574 2.49902 12.004 2.49902C12.389 2.49902 12.7152 2.79751 12.7669 3.1756L12.774 3.28053V7.28955L17.5539 7.28985C19.9339 7.28985 21.8893 9.23881 21.999 11.6694L22.0039 11.8851V16.9244C22.0039 19.3721 20.1166 21.3812 17.7719 21.494L17.5639 21.499H6.44391C4.06391 21.499 2.118 19.5598 2.00874 17.1203L2.00391 16.9038V11.8748C2.00391 9.42713 3.88182 7.40824 6.2259 7.29487L6.43391 7.28985H11.2339V13.6922L9.63391 12.04C9.33391 11.7302 8.84391 11.7302 8.54391 12.04C8.39391 12.1949 8.32391 12.4014 8.32391 12.608C8.32391 12.7649 8.36871 12.9285 8.46343 13.067L8.54391 13.1656L11.4539 16.1809C11.5939 16.3358 11.7939 16.4184 12.0039 16.4184C12.1706 16.4184 12.3372 16.361 12.4692 16.2523L12.5439 16.1809L15.4539 13.1656C15.7539 12.8558 15.7539 12.3498 15.4539 12.04C15.1812 11.7584 14.7514 11.7328 14.4502 11.9632L14.3639 12.04L12.7739 13.6922V7.28985L11.234 7.28955Z" fill="white"/>
</svg>
