<svg width="81" height="80" viewBox="0 0 81 80" fill="none" xmlns="http://www.w3.org/2000/svg">
<g clip-path="url(#clip0_121_15998)">
<path d="M20.5 66.25H73C73.6903 66.25 74.25 65.6903 74.25 65V27.5C74.25 26.8097 73.6903 26.25 73 26.25H20.5C19.8097 26.25 19.25 26.8097 19.25 27.5V65C19.25 65.6903 19.8097 66.25 20.5 66.25Z" fill="#EDF4FF"/>
<path d="M60.5 7.5H5.5C4.58938 7.5 3.73547 7.74312 3 8.16844L1.75 12.5V52.5H52.0625L65.5 26.25V12.5C65.5 9.73859 63.2614 7.5 60.5 7.5Z" fill="#DBEAFF"/>
<path d="M53 28.75L38.9331 34.7786C36.7191 35.7275 34.2369 35.8453 31.9428 35.1103L27.9988 33.8467C25.9853 33.2016 23.7822 33.6183 22.1433 34.9541L6.75 47.5L36.75 48.75L53 28.75Z" fill="#B3E59F"/>
<path d="M0.5 12.5V48.75L1.81516 49.7917L3 47.875V8.16846C1.51172 9.03471 0.5 10.6541 0.5 12.5Z" fill="#C3DDFF"/>
<path d="M59.9528 23.8727C58.0283 23.0479 55.7936 23.5097 54.3534 25.0297L36.4953 43.88C35.2081 45.2386 33.1162 45.4404 31.5933 44.3524L27.6102 41.5074C26.287 40.5624 24.5869 40.3196 23.0523 40.8568L3 47.875L1.90625 51.3021C1.90625 54.0635 4.14484 56.3021 6.90625 56.3021H60.5L64.8309 55C65.2564 54.2646 65.5 53.4108 65.5 52.5V26.25L59.9528 23.8727Z" fill="#95D6A4"/>
<path d="M72.374 22.5H70.499C69.8081 22.5 69.249 21.9403 69.249 21.25C69.249 20.5597 69.8081 20 70.499 20H72.374C73.065 20 73.624 20.5597 73.624 21.25C73.624 21.9403 73.065 22.5 72.374 22.5Z" fill="#EDF4FF"/>
<path d="M72.626 72.5H68.7649C68.074 72.5 67.5149 71.9403 67.5149 71.25C67.5149 70.5597 68.074 70 68.7649 70H72.626C73.3169 70 73.876 70.5597 73.876 71.25C73.876 71.9403 73.3169 72.5 72.626 72.5ZM63.616 72.5H59.7549C59.064 72.5 58.5049 71.9403 58.5049 71.25C58.5049 70.5597 59.064 70 59.7549 70H63.616C64.3069 70 64.866 70.5597 64.866 71.25C64.866 71.9403 64.3069 72.5 63.616 72.5ZM54.606 72.5H50.7449C50.054 72.5 49.4949 71.9403 49.4949 71.25C49.4949 70.5597 50.054 70 50.7449 70H54.606C55.2969 70 55.856 70.5597 55.856 71.25C55.856 71.9403 55.2969 72.5 54.606 72.5ZM45.596 72.5H41.7349C41.044 72.5 40.4849 71.9403 40.4849 71.25C40.4849 70.5597 41.044 70 41.7349 70H45.596C46.2869 70 46.846 70.5597 46.846 71.25C46.846 71.9403 46.2869 72.5 45.596 72.5ZM36.586 72.5H32.7249C32.034 72.5 31.4749 71.9403 31.4749 71.25C31.4749 70.5597 32.034 70 32.7249 70H36.586C37.2769 70 37.836 70.5597 37.836 71.25C37.836 71.9403 37.2769 72.5 36.586 72.5ZM27.576 72.5H23.7149C23.024 72.5 22.4649 71.9403 22.4649 71.25C22.4649 70.5597 23.024 70 23.7149 70H27.576C28.2669 70 28.826 70.5597 28.826 71.25C28.826 71.9403 28.2669 72.5 27.576 72.5ZM18.5708 72.4542C18.5147 72.4542 18.4585 72.4506 18.4011 72.4426C16.7813 72.2223 15.3322 71.3886 14.3216 70.0947C13.8968 69.5509 13.9932 68.7653 14.5365 68.34C15.0833 67.9139 15.8671 68.0116 16.2918 68.5555C16.8997 69.3331 17.7675 69.8336 18.738 69.9659C19.4229 70.0587 19.9013 70.6892 19.8086 71.3728C19.7232 71.9995 19.1861 72.4542 18.5708 72.4542ZM77.4882 71.3092C77.1354 71.3092 76.7838 71.1603 76.5373 70.8698C76.0893 70.3444 76.1515 69.5558 76.6776 69.1078C77.4283 68.4681 77.8921 67.5783 77.9826 66.6036C78.0473 65.9158 78.6649 65.4153 79.3437 65.475C80.0308 65.5391 80.5363 66.1483 80.4729 66.8355C80.3202 68.4633 79.5488 69.9458 78.2988 71.0109C78.063 71.2109 77.7749 71.3092 77.4882 71.3092ZM79.2496 62.8217C78.5587 62.8217 77.9996 62.262 77.9996 61.5717V57.7106C77.9996 57.0203 78.5587 56.4606 79.2496 56.4606C79.9405 56.4606 80.4996 57.0203 80.4996 57.7106V61.5717C80.4996 62.262 79.9405 62.8217 79.2496 62.8217ZM79.2496 53.8122C78.5587 53.8122 77.9996 53.2525 77.9996 52.5622V48.7005C77.9996 48.0101 78.5587 47.4505 79.2496 47.4505C79.9405 47.4505 80.4996 48.0101 80.4996 48.7005V52.5622C80.4996 53.2525 79.9405 53.8122 79.2496 53.8122ZM79.2496 44.8022C78.5587 44.8022 77.9996 44.2425 77.9996 43.5522V39.6906C77.9996 39.0003 78.5587 38.4406 79.2496 38.4406C79.9405 38.4406 80.4996 39.0003 80.4996 39.6906V43.5523C80.4996 44.2425 79.9405 44.8022 79.2496 44.8022ZM79.2496 35.7922C78.5587 35.7922 77.9996 35.2325 77.9996 34.5422V30.6805C77.9996 29.9901 78.5587 29.4305 79.2496 29.4305C79.9405 29.4305 80.4996 29.9901 80.4996 30.6805V34.5422C80.4996 35.2325 79.9405 35.7922 79.2496 35.7922ZM79.1983 26.7847C78.5868 26.7847 78.0521 26.3355 77.9618 25.7123C77.8226 24.7431 77.316 23.8776 76.5335 23.2758C75.9866 22.8547 75.8854 22.0697 76.3065 21.5228C76.7252 20.9753 77.5088 20.8728 78.0594 21.2945C79.3607 22.2961 80.2043 23.7391 80.4374 25.357C80.5351 26.0406 80.0602 26.6742 79.3766 26.7719C79.3168 26.7805 79.2569 26.7847 79.1983 26.7847Z" fill="#EDF4FF"/>
<path d="M14.25 65.6255C13.5591 65.6255 13 65.0658 13 64.3755V62.5005C13 61.8102 13.5591 61.2505 14.25 61.2505C14.9409 61.2505 15.5 61.8102 15.5 62.5005V64.3755C15.5 65.0658 14.9409 65.6255 14.25 65.6255Z" fill="#EDF4FF"/>
<path d="M14.25 26.25C17.0114 26.25 19.25 24.0114 19.25 21.25C19.25 18.4886 17.0114 16.25 14.25 16.25C11.4886 16.25 9.25 18.4886 9.25 21.25C9.25 24.0114 11.4886 26.25 14.25 26.25Z" fill="white"/>
<path d="M9.25 55C5.79828 55 3 52.2017 3 48.75V47.875L0.5 48.75V52.5C0.5 55.2614 2.73859 57.5 5.5 57.5H60.5C62.3459 57.5 63.9648 56.4881 64.8309 55H9.25Z" fill="#78C2A4"/>
</g>
<defs>
<clipPath id="clip0_121_15998">
<rect width="80" height="80" fill="white" transform="translate(0.5)"/>
</clipPath>
</defs>
</svg>
