<svg width="45" height="45" viewBox="0 0 45 45" fill="none" xmlns="http://www.w3.org/2000/svg">
<g clip-path="url(#clip0_121_18309)">
<path d="M22.5 44.5C34.6503 44.5 44.5 34.6503 44.5 22.5C44.5 10.3497 34.6503 0.5 22.5 0.5C10.3497 0.5 0.5 10.3497 0.5 22.5C0.513148 34.6449 10.3551 44.4869 22.5 44.5ZM20.6667 11.5C20.6667 10.4875 21.4875 9.6667 22.5 9.6667C23.5125 9.6667 24.3333 10.4875 24.3333 11.5V26.1667C24.3333 27.1792 23.5125 28 22.5 28C21.4875 28 20.6667 27.1792 20.6667 26.1667V11.5ZM22.5 33.5C23.5125 33.5 24.3333 34.3208 24.3333 35.3333C24.3333 36.3458 23.5125 37.1666 22.5 37.1666C21.4875 37.1666 20.6667 36.3458 20.6667 35.3333C20.6667 34.3208 21.4875 33.5 22.5 33.5Z" fill="#DC213E"/>
</g>
<defs>
<clipPath id="clip0_121_18309">
<rect width="44" height="44" fill="white" transform="translate(0.5 0.5)"/>
</clipPath>
</defs>
</svg>
