<svg width="16" height="16" viewBox="0 0 16 16" fill="none" xmlns="http://www.w3.org/2000/svg">
<g clip-path="url(#clip0_121_18157)">
<path d="M7.99965 10.6658C9.47185 10.6658 10.6653 9.47234 10.6653 8.00014C10.6653 6.52793 9.47185 5.33447 7.99965 5.33447C6.52744 5.33447 5.33398 6.52793 5.33398 8.00014C5.33398 9.47234 6.52744 10.6658 7.99965 10.6658Z" fill="white"/>
<path d="M15.5112 6.28013C14.4776 4.59676 12.1265 1.77246 7.99998 1.77246C3.87352 1.77246 1.52239 4.59676 0.488772 6.28013C-0.162924 7.33421 -0.162924 8.66609 0.488772 9.7202C1.52239 11.4036 3.87352 14.2279 7.99998 14.2279C12.1265 14.2279 14.4776 11.4036 15.5112 9.7202C16.1629 8.66609 16.1629 7.33421 15.5112 6.28013ZM7.99998 11.9987C5.79168 11.9987 4.00147 10.2085 4.00147 8.00015C4.00147 5.79184 5.79168 4.00163 7.99998 4.00163C10.2083 4.00163 11.9985 5.79184 11.9985 8.00015C11.9963 10.2075 10.2074 11.9964 7.99998 11.9987Z" fill="white"/>
</g>
<defs>
<clipPath id="clip0_121_18157">
<rect width="16" height="16" fill="white"/>
</clipPath>
</defs>
</svg>
