<svg width="7" height="13" viewBox="0 0 7 13" fill="none" xmlns="http://www.w3.org/2000/svg">
<path d="M5.09332 2.02054H6.7017C6.84967 2.02054 6.96976 1.90738 6.96976 1.76794V0.252354C6.96976 0.11292 6.84967 -0.000244141 6.7017 -0.000244141H5.09332C3.46779 -0.000244141 2.14463 1.24607 2.14463 2.77833V4.54652H0.268185C0.120214 4.54652 0.00012207 4.65968 0.00012207 4.79912V6.3147C0.00012207 6.45414 0.120214 6.5673 0.268185 6.5673H2.14463V11.8719C2.14463 12.0113 2.26472 12.1245 2.41269 12.1245H4.02107C4.16904 12.1245 4.28913 12.0113 4.28913 11.8719V6.5673H6.16557C6.28084 6.5673 6.38324 6.49759 6.42023 6.39453L6.95636 4.87894C6.9837 4.80215 6.96976 4.71727 6.91937 4.65109C6.86843 4.58542 6.78801 4.54652 6.7017 4.54652H4.28913V2.77833C4.28913 2.36054 4.64994 2.02054 5.09332 2.02054Z" fill="white"/>
</svg>
