<svg width="24" height="24" viewBox="0 0 24 24" fill="none" xmlns="http://www.w3.org/2000/svg">
<path d="M16.6602 2.00098C20.0602 2.00098 22.0002 3.92098 22.0002 7.33098V16.671C22.0002 20.061 20.0702 22.001 16.6702 22.001H7.33024C3.92024 22.001 2.00024 20.061 2.00024 16.671V7.33098C2.00024 3.92098 3.92024 2.00098 7.33024 2.00098H16.6602ZM11.9902 7.51098C11.5302 7.51098 11.1602 7.88098 11.1602 8.34098V11.161H8.33024C8.11024 11.161 7.90024 11.251 7.74024 11.401C7.59024 11.561 7.50024 11.77 7.50024 11.991C7.50024 12.451 7.87024 12.821 8.33024 12.831H11.1602V15.661C11.1602 16.121 11.5302 16.491 11.9902 16.491C12.4502 16.491 12.8202 16.121 12.8202 15.661V12.831H15.6602C16.1202 12.821 16.4902 12.451 16.4902 11.991C16.4902 11.531 16.1202 11.161 15.6602 11.161H12.8202V8.34098C12.8202 7.88098 12.4502 7.51098 11.9902 7.51098Z" fill="white"/>
</svg>
