<svg width="16" height="17" viewBox="0 0 16 17" fill="none" xmlns="http://www.w3.org/2000/svg">
<g clip-path="url(#clip0_121_18216)">
<path d="M8 0.5C6.41775 0.5 4.87104 0.969192 3.55544 1.84824C2.23985 2.72729 1.21447 3.97672 0.608967 5.43853C0.00346629 6.90034 -0.15496 8.50887 0.153721 10.0607C0.462403 11.6126 1.22433 13.038 2.34315 14.1569C3.46197 15.2757 4.88743 16.0376 6.43928 16.3463C7.99113 16.655 9.59966 16.4965 11.0615 15.891C12.5233 15.2855 13.7727 14.2602 14.6518 12.9446C15.5308 11.629 16 10.0823 16 8.5C15.9977 6.37897 15.1541 4.34547 13.6543 2.84568C12.1545 1.34589 10.121 0.502294 8 0.5V0.5ZM8 13.8333C7.86815 13.8333 7.73926 13.7942 7.62962 13.721C7.51999 13.6477 7.43454 13.5436 7.38408 13.4218C7.33363 13.3 7.32042 13.1659 7.34615 13.0366C7.37187 12.9073 7.43536 12.7885 7.5286 12.6953C7.62183 12.602 7.74062 12.5385 7.86994 12.5128C7.99926 12.4871 8.13331 12.5003 8.25513 12.5507C8.37694 12.6012 8.48106 12.6867 8.55432 12.7963C8.62757 12.9059 8.66667 13.0348 8.66667 13.1667C8.66667 13.3435 8.59643 13.513 8.47141 13.6381C8.34638 13.7631 8.17682 13.8333 8 13.8333ZM9.28667 8.83733C9.08993 8.96034 8.92906 9.13299 8.82022 9.3379C8.71138 9.54282 8.65842 9.77279 8.66667 10.0047V10.5C8.66667 10.6768 8.59643 10.8464 8.47141 10.9714C8.34638 11.0964 8.17682 11.1667 8 11.1667C7.82319 11.1667 7.65362 11.0964 7.5286 10.9714C7.40358 10.8464 7.33334 10.6768 7.33334 10.5V10.0047C7.32349 9.53428 7.43972 9.06983 7.66995 8.65953C7.90019 8.24923 8.23605 7.90802 8.64267 7.67133C8.88899 7.53567 9.0861 7.3256 9.20584 7.07116C9.32558 6.81672 9.3618 6.53094 9.30934 6.25467C9.25739 5.99147 9.12817 5.74973 8.93817 5.56033C8.74817 5.37092 8.50603 5.24246 8.24267 5.19133C8.05048 5.15576 7.85283 5.16288 7.6637 5.21217C7.47457 5.26147 7.29858 5.35175 7.14822 5.47661C6.99785 5.60147 6.87677 5.75787 6.79355 5.93472C6.71034 6.11157 6.66702 6.30455 6.66667 6.5C6.66667 6.67681 6.59643 6.84638 6.47141 6.97141C6.34638 7.09643 6.17682 7.16667 6 7.16667C5.82319 7.16667 5.65362 7.09643 5.5286 6.97141C5.40358 6.84638 5.33334 6.67681 5.33334 6.5C5.3335 6.02967 5.45806 5.56775 5.69437 5.1611C5.93069 4.75445 6.27035 4.41753 6.6789 4.18452C7.08746 3.95152 7.55037 3.83071 8.02069 3.83436C8.491 3.83801 8.95198 3.96598 9.35688 4.20529C9.76177 4.44461 10.0962 4.78676 10.3261 5.19702C10.5561 5.60729 10.6735 6.07109 10.6664 6.54136C10.6592 7.01164 10.5279 7.47166 10.2855 7.87477C10.0432 8.27788 9.69863 8.60973 9.28667 8.83667V8.83733Z" fill="#5D5F60"/>
</g>
<defs>
<clipPath id="clip0_121_18216">
<rect width="16" height="16" fill="white" transform="translate(0 0.5)"/>
</clipPath>
</defs>
</svg>
