<svg width="16" height="17" viewBox="0 0 16 17" fill="none" xmlns="http://www.w3.org/2000/svg">
<g clip-path="url(#clip0_265_2208)">
<path d="M7.41472 8.85724C7.22899 8.67138 7.00846 8.52395 6.76572 8.42336C6.52299 8.32277 6.26281 8.271 6.00006 8.271C5.73731 8.271 5.47713 8.32277 5.2344 8.42336C4.99166 8.52395 4.77112 8.67138 4.58539 8.85724L0.0253906 13.4172C0.087031 14.2533 0.461996 15.0353 1.07531 15.6068C1.68862 16.1783 2.49506 16.4973 3.33339 16.4999H12.6667C13.3199 16.4998 13.9584 16.3066 14.5021 15.9446L7.41472 8.85724Z" fill="#653FFF"/>
<path d="M11.9998 5.83365C12.7362 5.83365 13.3332 5.2367 13.3332 4.50032C13.3332 3.76394 12.7362 3.16699 11.9998 3.16699C11.2635 3.16699 10.6665 3.76394 10.6665 4.50032C10.6665 5.2367 11.2635 5.83365 11.9998 5.83365Z" fill="#653FFF"/>
<path d="M12.6667 0.5H3.33333C2.4496 0.501059 1.60237 0.852588 0.97748 1.47748C0.352588 2.10237 0.00105857 2.9496 0 3.83333L0 11.5573L3.64267 7.91467C3.95221 7.60505 4.31971 7.35944 4.72419 7.19186C5.12866 7.02429 5.56219 6.93805 6 6.93805C6.43781 6.93805 6.87134 7.02429 7.27582 7.19186C7.68029 7.35944 8.04779 7.60505 8.35733 7.91467L15.4447 15.002C15.8067 14.4583 15.9999 13.8198 16 13.1667V3.83333C15.9989 2.9496 15.6474 2.10237 15.0225 1.47748C14.3976 0.852588 13.5504 0.501059 12.6667 0.5V0.5ZM12 7.16667C11.4726 7.16667 10.957 7.01027 10.5185 6.71725C10.0799 6.42424 9.73816 6.00776 9.53632 5.52049C9.33449 5.03322 9.28168 4.49704 9.38457 3.97976C9.48747 3.46248 9.74144 2.98732 10.1144 2.61438C10.4873 2.24144 10.9625 1.98747 11.4798 1.88457C11.997 1.78168 12.5332 1.83449 13.0205 2.03632C13.5078 2.23816 13.9242 2.57995 14.2173 3.01848C14.5103 3.45701 14.6667 3.97258 14.6667 4.5C14.6667 5.20724 14.3857 5.88552 13.8856 6.38562C13.3855 6.88572 12.7072 7.16667 12 7.16667Z" fill="#653FFF"/>
</g>
<defs>
<clipPath id="clip0_265_2208">
<rect width="16" height="16" fill="white" transform="translate(0 0.5)"/>
</clipPath>
</defs>
</svg>
