<svg width="32" height="32" viewBox="0 0 32 32" fill="none" xmlns="http://www.w3.org/2000/svg">
<g clip-path="url(#clip0_121_17961)">
<path d="M24.5131 9.83068C24.2773 9.7592 24.0626 9.63086 23.888 9.45695C23.7134 9.28305 23.5842 9.0689 23.5118 8.83335C23.1035 7.44941 22.4186 6.16269 21.4987 5.05107C20.5787 3.93945 19.4428 3.02603 18.1597 2.36609C16.8765 1.70615 15.4728 1.31341 14.0335 1.21163C12.5942 1.10985 11.1491 1.30115 9.78589 1.77396C8.42264 2.24676 7.16948 2.99124 6.10226 3.96234C5.03504 4.93344 4.17594 6.11098 3.57694 7.42369C2.97794 8.7364 2.65151 10.157 2.61739 11.5995C2.58327 13.042 2.84218 14.4765 3.37844 15.816C3.5012 16.0983 3.52709 16.4133 3.45208 16.7119C3.37708 17.0105 3.20538 17.2759 2.96377 17.4667C1.90208 18.2547 1.07317 19.315 0.564774 20.5356C0.0563815 21.7561 -0.11258 23.0913 0.0757725 24.4C0.36971 26.1692 1.2882 27.7743 2.66455 28.9242C4.04089 30.074 5.78386 30.6922 7.57711 30.6667H18.6664V20.552L16.9424 22.276C16.691 22.5189 16.3542 22.6533 16.0046 22.6502C15.655 22.6472 15.3206 22.507 15.0733 22.2598C14.8261 22.0126 14.6859 21.6781 14.6829 21.3285C14.6798 20.979 14.8142 20.6421 15.0571 20.3907L17.1718 18.276C17.9219 17.5261 18.9391 17.1049 19.9998 17.1049C21.0604 17.1049 22.0777 17.5261 22.8278 18.276L24.9424 20.3907C25.0698 20.5137 25.1714 20.6608 25.2412 20.8235C25.3111 20.9861 25.3479 21.1611 25.3494 21.3381C25.351 21.5152 25.3172 21.6908 25.2502 21.8546C25.1832 22.0185 25.0842 22.1673 24.959 22.2925C24.8338 22.4177 24.6849 22.5167 24.521 22.5838C24.3572 22.6508 24.1816 22.6846 24.0046 22.683C23.8275 22.6815 23.6526 22.6447 23.4899 22.5748C23.3272 22.5049 23.1801 22.4034 23.0571 22.276L21.3331 20.552V30.6493C23.9871 30.5963 26.5306 29.5773 28.4871 27.7833C30.4435 25.9893 31.6787 23.5434 31.9611 20.904C32.173 18.4849 31.5493 16.0662 30.194 14.0511C28.8387 12.0361 26.8336 10.5465 24.5131 9.83068Z" fill="#717375"/>
</g>
<defs>
<clipPath id="clip0_121_17961">
<rect width="32" height="32" fill="white"/>
</clipPath>
</defs>
</svg>
